<?xml version="1.0" standalone="no"?>
<!DOCTYPE svg PUBLIC "-//W3C//DTD SVG 20010904//EN"
 "http://www.w3.org/TR/2001/REC-SVG-20010904/DTD/svg10.dtd">
<svg version="1.0" xmlns="http://www.w3.org/2000/svg"
 width="1000.000000pt" height="1050.000000pt" viewBox="0 0 1000.000000 1050.000000"
 preserveAspectRatio="xMidYMid meet">
<metadata>
Created by potrace 1.15, written by Peter Selinger 2001-2017
</metadata>
<g transform="translate(0.000000,1050.000000) scale(0.100000,-0.100000)"
fill="#fafafa" stroke="none">
<path d="M4020 10050 c-8 -5 -46 -23 -85 -41 -54 -24 -84 -46 -131 -98 l-61
-66 -119 -7 c-194 -12 -272 -28 -337 -71 -17 -11 -27 -26 -27 -42 0 -23 3 -24
63 -24 81 1 177 -11 177 -21 0 -4 26 -10 57 -14 31 -4 61 -10 67 -14 6 -4 36
-16 66 -27 76 -25 130 -85 191 -211 36 -75 52 -120 60 -180 13 -90 5 -300 -12
-321 -15 -17 -27 -247 -18 -316 4 -29 13 -70 19 -92 7 -22 14 -60 17 -85 3
-25 9 -49 14 -54 5 -6 9 -22 9 -37 0 -47 58 -195 121 -309 31 -55 120 -177
151 -206 18 -18 69 -58 113 -89 44 -32 82 -61 83 -66 2 -5 8 -9 14 -9 6 0 27
-13 47 -29 63 -49 365 -211 394 -211 7 0 17 -4 22 -9 6 -4 32 -16 58 -26 26
-10 58 -31 71 -46 28 -33 46 -123 46 -227 l0 -71 -62 -76 c-35 -42 -72 -91
-83 -109 -11 -18 -31 -46 -45 -63 l-25 -32 -180 -11 c-640 -39 -1161 -163
-1555 -372 -123 -65 -260 -153 -260 -167 0 -9 26 -28 82 -59 18 -10 240 -159
493 -331 l460 -312 200 6 c110 4 223 8 250 10 28 2 124 6 215 10 155 5 216 7
500 20 63 3 176 7 250 10 74 3 185 8 245 10 61 3 178 7 260 10 83 3 192 8 242
11 l93 6 67 76 c38 41 77 85 88 98 29 32 59 66 165 189 52 61 97 112 100 115
3 3 46 52 95 110 50 58 102 118 118 135 42 46 33 65 -48 98 -114 46 -441 153
-586 191 -256 67 -529 117 -723 132 -52 4 -90 12 -92 19 -3 6 0 32 6 56 6 24
20 87 31 139 10 52 25 124 33 160 8 36 21 97 30 137 19 91 30 108 86 128 25 9
59 23 77 31 17 8 36 14 41 14 6 0 32 11 59 24 26 13 61 27 76 30 64 15 27 38
-208 133 -354 142 -500 215 -669 335 -174 125 -414 380 -474 505 -15 32 -15
35 5 55 21 20 23 20 48 4 14 -9 29 -25 32 -34 4 -9 12 -23 19 -32 7 -8 35 -44
61 -80 67 -91 233 -255 326 -324 113 -82 313 -194 457 -255 69 -29 140 -59
159 -68 18 -8 45 -19 60 -23 14 -5 60 -23 101 -40 151 -63 496 -183 541 -188
42 -4 49 -2 63 21 14 21 15 29 4 53 -27 62 -245 395 -333 509 -69 89 -118 159
-202 285 -113 171 -192 267 -275 337 -97 81 -194 153 -206 153 -4 0 -33 22
-63 48 -29 26 -90 73 -134 105 -44 31 -93 66 -109 79 -16 12 -46 31 -67 43
-59 31 -185 157 -212 212 -14 27 -28 67 -32 89 -9 55 -35 133 -56 174 -11 19
-19 40 -19 47 0 26 -54 169 -78 208 -45 72 -113 152 -152 176 -62 40 -144 59
-246 58 -54 0 -106 -4 -114 -9z m1311 -2843 c-6 -6 -11 -25 -11 -41 0 -17 -12
-76 -25 -131 -14 -55 -25 -115 -25 -133 0 -18 -7 -49 -15 -69 -8 -19 -15 -46
-15 -59 0 -26 -9 -29 -57 -15 -20 6 -47 5 -71 -1 -24 -6 -47 -6 -56 -1 -13 7
-2 25 61 103 41 52 85 111 98 130 26 43 46 121 52 215 5 73 14 92 48 105 18 7
20 3 23 -43 2 -27 -2 -55 -7 -60z"/>
<path d="M6092 8069 c3 -13 67 -118 143 -233 159 -241 185 -294 185 -371 0
-66 11 -79 197 -221 70 -54 174 -139 231 -189 193 -169 227 -196 252 -201 14
-3 33 -9 42 -15 10 -5 55 -9 101 -9 l84 0 47 41 c56 49 63 62 71 122 9 64 -15
112 -73 146 -25 14 -62 40 -83 58 -21 17 -56 42 -76 54 -21 13 -65 45 -99 71
-81 63 -168 124 -288 200 -54 35 -134 87 -179 116 -44 29 -92 55 -106 59 -35
8 -94 59 -270 231 -80 79 -154 148 -165 154 -16 9 -18 7 -14 -13z"/>
<path d="M6931 6286 c-7 -8 -10 -20 -7 -25 4 -6 -33 -56 -82 -113 -48 -57
-146 -173 -217 -258 -72 -85 -172 -204 -222 -264 -51 -61 -93 -118 -93 -127 0
-15 47 -154 170 -499 28 -80 65 -183 82 -230 16 -47 38 -107 48 -135 10 -27
31 -88 48 -135 17 -47 54 -150 82 -230 29 -80 54 -149 55 -155 1 -5 5 -17 8
-25 6 -14 78 -218 238 -673 32 -93 64 -180 71 -194 9 -16 48 -43 113 -77 55
-29 154 -81 220 -115 66 -35 275 -142 465 -239 190 -96 350 -182 355 -189 14
-19 62 -7 76 19 22 41 38 176 39 319 0 278 -40 659 -126 1173 -71 424 -82 476
-121 551 -42 81 -203 371 -256 463 -21 34 -52 88 -71 120 -161 276 -402 629
-534 785 -60 71 -197 208 -231 231 -48 32 -94 41 -110 22z"/>
<path d="M2827 6084 c6 -17 5 -17 -10 -5 -9 7 -27 11 -40 7 -25 -6 -207 -181
-273 -261 -88 -108 -267 -364 -336 -480 -19 -33 -64 -107 -100 -165 -120 -198
-395 -708 -412 -765 -33 -115 -49 -491 -36 -860 16 -465 62 -1098 81 -1121 12
-14 60 -15 77 -1 7 5 10 17 7 27 -4 13 30 32 174 95 l179 79 -33 41 c-98 120
-143 390 -99 588 39 175 196 377 293 377 21 0 46 7 57 15 27 20 85 18 112 -5
13 -10 46 -62 75 -114 29 -52 74 -120 101 -151 71 -83 188 -171 296 -223 52
-25 97 -48 100 -52 18 -21 148 -31 135 -9 -4 5 -2 9 4 9 5 0 10 8 10 18 -1 9
2 27 6 40 6 19 2 24 -28 37 -20 8 -42 12 -50 9 -23 -8 -143 42 -220 93 -138
91 -245 217 -294 348 -23 59 -22 209 1 253 25 48 85 108 126 127 22 10 40 22
40 26 0 12 118 46 206 59 107 16 372 10 383 -9 5 -8 11 -9 15 -3 4 6 20 7 43
2 21 -5 38 -8 39 -7 4 5 94 330 119 427 14 58 32 125 40 150 21 69 185 695
185 705 0 14 -201 153 -742 516 -147 98 -208 145 -208 158 0 10 -7 24 -15 31
-13 11 -14 10 -8 -6z"/>
<path d="M6089 5446 c-2 -2 -87 -6 -189 -10 -174 -6 -490 -18 -765 -31 -66 -3
-235 -9 -375 -15 -140 -5 -302 -12 -360 -15 -58 -2 -181 -7 -275 -11 -93 -3
-173 -9 -177 -13 -6 -6 -124 -443 -448 -1669 -83 -315 -148 -580 -145 -590 4
-9 66 -56 138 -104 73 -47 193 -128 267 -178 74 -51 299 -203 500 -338 201
-135 481 -323 622 -419 142 -95 263 -173 270 -173 11 0 168 111 658 462 36 26
79 57 95 68 17 12 62 45 101 73 40 29 80 58 90 65 11 7 60 42 109 77 249 180
419 302 445 320 16 11 81 58 146 105 65 47 128 91 141 98 29 16 29 34 -2 119
-13 37 -65 185 -116 328 -50 143 -114 323 -141 400 -78 219 -109 309 -113 325
-3 8 -15 44 -28 80 -14 36 -75 209 -136 385 -62 176 -120 343 -130 370 -32 86
-79 218 -91 258 -11 34 -14 37 -49 37 -21 0 -40 -2 -42 -4z"/>
<path d="M7014 3022 c-60 -43 -311 -222 -425 -302 -43 -30 -194 -138 -336
-239 -344 -247 -558 -398 -613 -435 -25 -16 -47 -33 -50 -36 -3 -4 -34 -26
-69 -51 -35 -24 -78 -54 -95 -67 -17 -12 -47 -33 -66 -46 -19 -13 -46 -33 -60
-45 -14 -12 -35 -31 -47 -42 -13 -10 -23 -27 -24 -36 0 -10 -2 -25 -3 -33 -2
-8 -6 -89 -10 -180 -13 -323 -36 -846 -41 -930 -3 -47 -6 -131 -7 -187 -1 -79
-4 -103 -15 -103 -8 0 -13 -11 -13 -28 0 -66 64 -65 360 8 339 84 746 221
1410 474 46 18 78 44 190 156 289 288 489 536 812 1010 170 249 339 525 332
543 -5 15 -56 47 -74 47 -7 0 -35 11 -62 25 -94 47 -343 178 -353 185 -14 10
-681 350 -686 350 -2 -1 -27 -18 -55 -38z"/>
<path d="M3145 2923 c-55 -25 -365 -164 -690 -310 -676 -303 -676 -303 -683
-322 -19 -49 324 -564 537 -807 20 -22 53 -60 75 -85 126 -146 202 -226 390
-413 l210 -208 120 -58 c370 -176 859 -329 1386 -434 254 -51 517 -92 527 -83
3 4 7 66 9 138 3 135 30 779 38 929 3 47 8 173 12 280 l6 195 -64 42 c-65 43
-228 153 -263 179 -11 8 -49 33 -85 57 -36 24 -123 83 -195 132 -71 48 -260
176 -420 283 -159 108 -316 214 -347 236 -31 23 -89 62 -130 88 -40 25 -126
83 -191 127 -64 45 -123 81 -130 80 -6 0 -57 -21 -112 -46z"/>
</g>
</svg>
