<svg width="510" height="510" xmlns="http://www.w3.org/2000/svg">

 <g>
  <title>background</title>
  <rect fill="none" id="canvas_background" height="402" width="582" y="-1" x="-1"/>
 </g>
 <g>
  <title>Layer 1</title>
  <g id="svg_1">
   <g id="post-twitter">
    <path fill="#a1887f" id="svg_2" d="m459,0l-408,0c-28.05,0 -51,22.95 -51,51l0,408c0,28.05 22.95,51 51,51l408,0c28.05,0 51,-22.95 51,-51l0,-408c0,-28.05 -22.95,-51 -51,-51zm-58.65,186.15c-2.55,117.3 -76.5,198.9 -188.7,204c-45.9,2.55 -79.05,-12.75 -109.65,-30.6c33.15,5.101 76.5,-7.649 99.45,-28.05c-33.15,-2.55 -53.55,-20.4 -63.75,-48.45c10.2,2.55 20.4,0 28.05,0c-30.6,-10.2 -51,-28.05 -53.55,-68.85c7.65,5.1 17.85,7.65 28.05,7.65c-22.95,-12.75 -38.25,-61.2 -20.4,-91.8c33.15,35.7 73.95,66.3 140.25,71.4c-17.85,-71.4 79.051,-109.65 117.301,-61.2c17.85,-2.55 30.6,-10.2 43.35,-15.3c-5.1,17.85 -15.3,28.05 -28.05,38.25c12.75,-2.55 25.5,-5.1 35.7,-10.2c-2.551,12.75 -15.301,22.95 -28.051,33.15z"/>
   </g>
  </g>
  <g id="svg_3"/>
  <g id="svg_4"/>
  <g id="svg_5"/>
  <g id="svg_6"/>
  <g id="svg_7"/>
  <g id="svg_8"/>
  <g id="svg_9"/>
  <g id="svg_10"/>
  <g id="svg_11"/>
  <g id="svg_12"/>
  <g id="svg_13"/>
  <g id="svg_14"/>
  <g id="svg_15"/>
  <g id="svg_16"/>
  <g id="svg_17"/>
 </g>
</svg>