<svg xmlns="http://www.w3.org/2000/svg" width="24" height="24"><g><title>background</title><rect id="canvas_background" width="582" height="402" x="-1" y="-1" fill="none"/></g><g><title>Layer 1</title><path id="svg_1" fill="#efebe9" d="m11.984,16.815c2.596,0 4.706,-2.111 4.706,-4.707c0,-1.409 -0.623,-2.674 -1.606,-3.538c-0.346,-0.303 -0.735,-0.556 -1.158,-0.748c-0.593,-0.27 -1.249,-0.421 -1.941,-0.421s-1.349,0.151 -1.941,0.421c-0.424,0.194 -0.814,0.447 -1.158,0.749c-0.985,0.864 -1.608,2.129 -1.608,3.538c0,2.595 2.112,4.706 4.706,4.706zm0.016,-8.184c1.921,0 3.479,1.557 3.479,3.478c0,1.921 -1.558,3.479 -3.479,3.479s-3.479,-1.557 -3.479,-3.479c0,-1.921 1.558,-3.478 3.479,-3.478zm5.223,0.369l6.777,0l0,10.278c0,2.608 -2.114,4.722 -4.722,4.722l-14.493,0c-2.608,0 -4.785,-2.114 -4.785,-4.722l0,-10.278l6.747,0c-0.544,0.913 -0.872,1.969 -0.872,3.109c0,3.374 2.735,6.109 6.109,6.109s6.109,-2.735 6.109,-6.109c0.001,-1.14 -0.327,-2.196 -0.87,-3.109zm2.055,-9l-12.278,0l0,5l-1,0l0,-5l-1,0l0,5l-1,0l0,-4.923c-0.346,0.057 -0.682,0.143 -1,0.27l0,4.653l-1,0l0,-4.102c-1.202,0.857 -2,2.246 -2,3.824l0,3.278l7.473,0c1.167,-1.282 2.798,-2 4.511,-2c1.722,0 3.351,0.725 4.511,2l7.505,0l0,-3.278c0,-2.608 -2.114,-4.722 -4.722,-4.722zm2.722,5.265c0,0.406 -0.333,0.735 -0.745,0.735l-2.511,0c-0.411,0 -0.744,-0.329 -0.744,-0.735l0,-2.53c0,-0.406 0.333,-0.735 0.744,-0.735l2.511,0c0.412,0 0.745,0.329 0.745,0.735l0,2.53z"/></g></svg>